<mxfile host="app.diagrams.net" modified="2022-07-07T23:40:35.709Z" agent="5.0 (Macintosh; Intel Mac OS X 10_15_7) AppleWebKit/605.1.15 (KHTML, like Gecko) Version/15.5 Safari/605.1.15" etag="bQoeFWIMnZa28S5c8Ray" version="20.0.4" type="github">
  <diagram id="AlnoL4VqG4SdxzXQwVNW" name="Page-1">
    <mxGraphModel dx="820" dy="518" grid="1" gridSize="10" guides="1" tooltips="1" connect="1" arrows="1" fold="1" page="1" pageScale="1" pageWidth="850" pageHeight="1100" math="0" shadow="0">
      <root>
        <mxCell id="0" />
        <mxCell id="1" parent="0" />
        <mxCell id="8-lWjJV1vTSoglG4YD1p-1" value="User Story" style="text;html=1;strokeColor=none;fillColor=none;align=center;verticalAlign=middle;whiteSpace=wrap;rounded=0;fontSize=24;" parent="1" vertex="1">
          <mxGeometry x="20" y="20" width="140" height="30" as="geometry" />
        </mxCell>
        <mxCell id="8-lWjJV1vTSoglG4YD1p-2" value="&lt;font style=&quot;font-size: 17px;&quot;&gt;- An absolute beginner wants to &lt;b&gt;meddle with the alphabet&lt;/b&gt; by combining consonants and vowels to &lt;b&gt;create simple words&lt;/b&gt; on their own. And, they want to hear &lt;b&gt;how the word is pronounced&lt;/b&gt; and &lt;b&gt;what that word means&lt;/b&gt;.&lt;/font&gt;" style="text;html=1;strokeColor=none;fillColor=none;align=center;verticalAlign=middle;whiteSpace=wrap;rounded=0;fontSize=24;" parent="1" vertex="1">
          <mxGeometry x="42" y="60" width="740" height="70" as="geometry" />
        </mxCell>
        <mxCell id="8-lWjJV1vTSoglG4YD1p-3" value="&lt;font style=&quot;font-size: 17px;&quot;&gt;- An absolute beginner wants to practice writing the alphabet and for advanced beginners, words.&lt;/font&gt;" style="text;html=1;strokeColor=none;fillColor=none;align=center;verticalAlign=middle;whiteSpace=wrap;rounded=0;fontSize=24;" parent="1" vertex="1">
          <mxGeometry x="30" y="140" width="760" height="30" as="geometry" />
        </mxCell>
        <mxCell id="8-lWjJV1vTSoglG4YD1p-4" value="&lt;font style=&quot;font-size: 17px;&quot;&gt;- An advanced user wants to create sentences with words they understand. Concentrating on grammar and rules only makes users tired. They need to &lt;b&gt;make sentence without knowing any rules&lt;/b&gt; first and then see what that sentence means and why that is.&lt;/font&gt;" style="text;html=1;strokeColor=none;fillColor=none;align=center;verticalAlign=middle;whiteSpace=wrap;rounded=0;fontSize=24;" parent="1" vertex="1">
          <mxGeometry x="34" y="185" width="794" height="60" as="geometry" />
        </mxCell>
        <mxCell id="8-lWjJV1vTSoglG4YD1p-5" value="Task flow" style="text;html=1;strokeColor=none;fillColor=none;align=center;verticalAlign=middle;whiteSpace=wrap;rounded=0;fontSize=24;" parent="1" vertex="1">
          <mxGeometry x="20" y="310" width="140" height="30" as="geometry" />
        </mxCell>
      </root>
    </mxGraphModel>
  </diagram>
</mxfile>
